<?xml version="1.0" encoding="utf-8"?>
<!-- Generator: Adobe Illustrator 19.2.1, SVG Export Plug-In . SVG Version: 6.00 Build 0)  -->
<svg version="1.1" id="layer" xmlns="http://www.w3.org/2000/svg" xmlns:xlink="http://www.w3.org/1999/xlink" x="0px" y="0px"
	 viewBox="0 0 652 652" style="enable-background:new 0 0 652 652;" xml:space="preserve">
<style type="text/css">
	.st0{fill:#E00800;}
	.st1{fill:#FFFFFF;}
</style>
<path class="st0" d="M587.3,397.8H56.4c-19.1,0-34.5-15.5-34.5-34.5v-82.9c0-19.1,15.5-34.5,34.5-34.5h531
	c19.1,0,34.5,15.5,34.5,34.5v82.9C621.9,382.4,606.4,397.8,587.3,397.8"/>
<path d="M385.4,397.8H56.4c-19,0-34.5-15.5-34.5-34.5v-83c0-19,15.5-34.5,34.5-34.5h329.1c19,0,34.5,15.5,34.5,34.5v82.9
	C419.9,382.3,404.4,397.8,385.4,397.8"/>
<path class="st1" d="M507,311.9c7,0,13.3,5.1,13.6,13.4h-27.8C493.8,315.2,501.4,311.9,507,311.9 M550.1,292.9
	c4.4,0,7.9,2.5,7.9,7.4c0,4.5-2.7,8.9-8.7,11.6l-0.1-0.1c-3.6-3.8-7-8.2-7-12.3C542.2,295.4,545.9,292.9,550.1,292.9 M574.6,339.4
	c3.9-6.8,6.2-14.4,7-21.8h-11.9c-0.3,4.6-1.2,9.3-2.8,13.4c-1.6,4.1-3.6,7.7-6.2,10.7c-3.9,4.5-8.9,7.4-14.5,7.4
	c-6.7,0-11.3-2.9-13.1-7.6h-12.8c-2.1,4.9-7,7.5-13.1,7.5c-6.8,0-13.7-4.9-14.5-14.8h39.8c1-4.9,4.9-8.6,11.2-10.9
	c0,0,5.8-2.1,11.6-4.6c7.9-3.7,13.9-10.2,13.9-18.6c0-11.8-10.1-15.9-19.3-15.9c-11.6,0-20.1,6-20.1,15.7c0,5.7,3.1,11,7.6,16.4
	c-2.4,0.9-4.7,2-6.8,3.3c-3.7-10.2-12.1-16.7-23.7-16.7c-15.2,0-26.2,11.4-26.2,27.5c0,15.3,9.8,28.4,27,28.4c7.9,0,13.9-2.9,18-6.9
	c4.2,4.3,10.5,6.9,18.3,6.9c9.5,0,17.3-3.8,23.3-9.7l7.6,8.3h16.2L574.6,339.4z"/>
<path class="st1" d="M87.2,311.7c-1.7,0-3.3,0.3-4.9,0.8c-1.6,0.5-3.1,1.3-4.4,2.5c-1.3,1.1-2.4,2.5-3.3,4.2c-0.9,1.7-1.3,3.7-1.4,6
	h27.4c-0.1-2.1-0.5-4-1.2-5.6c-0.7-1.7-1.7-3.1-2.9-4.3c-1.2-1.2-2.6-2-4.2-2.6C90.7,312,89,311.7,87.2,311.7 M88,358.7
	c-4.4,0-8.3-0.7-11.7-2.3c-3.4-1.6-6.2-3.6-8.4-6.2c-2.2-2.6-3.9-5.6-5.1-9.1c-1.2-3.4-1.7-7.1-1.7-11c0-4.1,0.6-7.8,1.9-11.2
	c1.3-3.4,3-6.3,5.3-8.7c2.2-2.5,5-4.4,8.2-5.8c3.2-1.4,6.8-2.1,10.7-2.1c4.2,0,7.9,0.8,11.2,2.4c3.3,1.6,6,3.8,8.2,6.6
	c2.2,2.8,3.9,6.1,4.9,9.9c1.1,3.9,1.4,8,1.2,12.5H73.2c0.1,2.1,0.5,4.1,1.3,5.9c0.7,1.8,1.8,3.4,3,4.8c1.3,1.3,2.8,2.4,4.4,3.1
	c1.7,0.7,3.6,1.1,5.5,1.1c6.4,0,10.7-2.5,12.9-7.5H112c-0.6,2.1-1.6,4.3-2.8,6.3c-1.3,2.1-2.9,4-4.8,5.6c-2,1.6-4.3,2.9-7.1,4
	C94.6,358.1,91.5,358.7,88,358.7 M121.5,289.4h11.9v14.2h10.8v8.6h-10.8v29.3c0,2.8,0.5,4.5,1.3,5.5c0.9,0.9,2.6,1.3,5.1,1.3h4.3
	v9.1h-8.8c-2.9,0-5.2-0.2-7-0.6c-1.8-0.5-3.2-1.2-4.2-2.2c-1-1.1-1.7-2.5-2.1-4.4c-0.3-1.8-0.6-4.1-0.6-6.8v-31.1h-8v-8.6h8V289.4z
	 M162.9,357.3H151v-53.8h11.9V357.3z M162.9,296.9H151v-12h11.9V296.9z M205.3,318.7c-0.6-2.5-2-4.4-4.2-5.5c-2.2-1.2-5-1.7-8.4-1.7
	c-2.8,0-5.1,0.5-7.1,1.6c-2,1-2.9,2.5-2.9,4.3c0,3.3,2.6,5.5,7.8,6.6l7.3,1.5c2.6,0.6,5.2,1.3,7.5,2.1c2.4,0.7,4.4,1.7,6.2,2.9
	c1.7,1.2,3.1,2.7,4.1,4.4c1,1.8,1.5,4,1.5,6.6c0,2.8-0.6,5.3-1.8,7.5c-1.2,2.2-2.9,4-5,5.4c-2.1,1.4-4.5,2.5-7.3,3.3
	c-2.8,0.7-5.7,1.1-8.9,1.1c-3.5,0-6.6-0.5-9.4-1.4c-2.8-0.9-5.3-2.2-7.3-3.8c-2-1.6-3.7-3.5-4.9-5.7c-1.2-2.2-2-4.6-2.2-7.2h11.6
	c0.5,2.9,1.8,5.1,3.9,6.7c2.1,1.6,5,2.4,8.8,2.4c3.3,0,6-0.6,8-1.8c2-1.2,3-2.9,3-5.1c0-2.1-0.9-3.7-2.6-4.9c-1.8-1.2-4.1-2-7-2.6
	l-8.1-1.7c-2.4-0.5-4.5-1.1-6.5-1.8c-2-0.8-3.7-1.8-5.2-3c-1.4-1.2-2.6-2.8-3.4-4.5c-0.9-1.8-1.3-3.9-1.3-6.3c0-2.4,0.6-4.5,1.7-6.4
	c1.2-1.9,2.8-3.5,4.8-4.8c2-1.3,4.3-2.4,7-3.1c2.6-0.7,5.5-1.1,8.5-1.1c2.8,0,5.5,0.3,8,1c2.5,0.7,4.8,1.7,6.8,3.1
	c2,1.4,3.7,3,5.2,5.1c1.4,2,2.4,4.4,2.9,7.1L205.3,318.7L205.3,318.7z M258.3,332.1c-4.3,0.4-7.9,0.9-10.9,1.4c-3,0.5-5.5,1.2-7.4,2
	c-2,0.8-3.3,1.7-4.3,2.9c-0.9,1.1-1.3,2.4-1.3,4c0,2.4,0.9,4.1,2.7,5.5c1.8,1.3,4.2,2,7.2,2c4.4,0,7.8-1.2,10.3-3.6
	c2.5-2.4,3.7-6.5,3.7-12.1V332.1z M246.9,302c3.3,0,6.4,0.4,9.3,1.2c2.8,0.8,5.3,2.1,7.4,3.9c2.1,1.8,3.6,4.1,4.8,7.1
	c1.1,2.9,1.6,6.6,1.6,10.8c0,0.7,0,1.6-0.1,2.6c-0.1,1.1-0.1,2.3-0.1,3.6s0,2.6-0.1,4c-0.1,1.4-0.1,2.6-0.1,3.9
	c0,3.4,0.1,6.7,0.4,10.1c0.3,3.3,0.7,6.1,1.2,8.3h-10.9c-0.2-1.2-0.4-2.2-0.6-3.3c-0.2-1.1-0.3-2.5-0.5-4.4c-1.7,3-4,5.2-7.1,6.7
	c-3,1.5-6.6,2.2-10.6,2.2c-2.9,0-5.6-0.4-8-1.2c-2.4-0.7-4.5-1.8-6.3-3.3c-1.8-1.4-3.1-3.1-4.1-5.1c-1-2-1.4-4.2-1.4-6.7
	c0-3.3,1-6.1,2.9-8.3c2-2.2,4.5-4,7.8-5.4c3.3-1.4,7.1-2.5,11.5-3.2c4.4-0.7,9-1.4,14-1.9v-1.3c0-2.2-0.3-4.1-0.9-5.6
	c-0.6-1.5-1.4-2.7-2.5-3.6c-1-0.9-2.2-1.6-3.6-1.9c-1.4-0.3-2.9-0.6-4.6-0.6c-3.1,0-5.6,0.8-7.7,2.4c-2.1,1.6-3.2,4-3.3,7.3h-11.7
	c0.2-2.8,0.9-5.2,2.1-7.5c1.2-2.2,2.8-4.2,4.8-5.9c2-1.6,4.4-2.9,7.2-3.8C240.5,302.4,243.6,302,246.9,302 M291.7,357.3h-11.9v-72.4
	h11.9V357.3z M335.9,332.1c-4.3,0.4-7.9,0.9-10.9,1.4c-3,0.5-5.5,1.2-7.4,2c-2,0.8-3.3,1.7-4.3,2.9c-0.9,1.1-1.3,2.4-1.3,4
	c0,2.4,0.9,4.1,2.7,5.5c1.8,1.3,4.2,2,7.2,2c4.4,0,7.8-1.2,10.3-3.6c2.5-2.4,3.7-6.5,3.7-12.1V332.1z M324.6,302
	c3.3,0,6.4,0.4,9.3,1.2c2.8,0.8,5.3,2.1,7.4,3.9c2.1,1.8,3.6,4.1,4.8,7.1c1.1,2.9,1.6,6.6,1.6,10.8c0,0.7,0,1.6-0.1,2.6
	c-0.1,1.1-0.1,2.3-0.1,3.6s0,2.6-0.1,4c-0.1,1.4-0.1,2.6-0.1,3.9c0,3.4,0.1,6.7,0.4,10.1c0.3,3.3,0.7,6.1,1.2,8.3H338
	c-0.2-1.2-0.4-2.2-0.6-3.3c-0.2-1.1-0.3-2.5-0.5-4.4c-1.7,3-4,5.2-7.1,6.7c-3,1.5-6.6,2.2-10.6,2.2c-2.9,0-5.6-0.4-8-1.2
	c-2.4-0.7-4.5-1.8-6.3-3.3c-1.8-1.4-3.1-3.1-4.1-5.1c-1-2-1.4-4.2-1.4-6.7c0-3.3,1-6.1,2.9-8.3c2-2.2,4.5-4,7.8-5.4
	c3.3-1.4,7.1-2.5,11.5-3.2c4.4-0.7,9-1.4,14-1.9v-1.3c0-2.2-0.3-4.1-0.9-5.6c-0.6-1.5-1.4-2.7-2.5-3.6c-1-0.9-2.2-1.6-3.6-1.9
	c-1.4-0.3-2.9-0.6-4.6-0.6c-3,0-5.6,0.8-7.7,2.4c-2.1,1.6-3.2,4-3.3,7.3h-11.7c0.2-2.8,0.9-5.2,2.1-7.5c1.2-2.2,2.8-4.2,4.8-5.9
	c2-1.6,4.4-2.9,7.2-3.8C318.2,302.4,321.3,302,324.6,302 M358.9,289.4h11.9v14.2h10.8v8.6h-10.8v29.3c0,2.8,0.5,4.5,1.3,5.5
	c0.9,0.9,2.6,1.3,5.1,1.3h4.3v9.1h-8.8c-2.9,0-5.2-0.2-7-0.6c-1.8-0.5-3.2-1.2-4.2-2.2c-1-1.1-1.7-2.5-2.1-4.4
	c-0.3-1.8-0.6-4.1-0.6-6.8v-31.1h-8v-8.6h8V289.4z"/>
<path class="st1" d="M507.1,311.9c7,0,13.3,5.1,13.6,13.4h-27.8C493.9,315.2,501.5,311.9,507.1,311.9 M550.2,292.9
	c4.4,0,7.9,2.5,7.9,7.4c0,4.5-2.7,8.9-8.7,11.6l-0.1-0.1c-3.6-3.8-7-8.2-7-12.3C542.3,295.4,546,292.9,550.2,292.9 M574.7,339.4
	c3.9-6.8,6.2-14.4,7-21.8h-11.9c-0.3,4.6-1.2,9.3-2.8,13.4c-1.6,4.1-3.6,7.7-6.2,10.7c-3.9,4.5-8.9,7.4-14.5,7.4
	c-6.7,0-11.3-2.9-13.1-7.6h-12.8c-2.1,4.9-7,7.5-13.1,7.5c-6.8,0-13.7-4.9-14.5-14.8h39.8c1-4.9,4.9-8.6,11.2-10.9
	c0,0,5.8-2.1,11.6-4.6c7.9-3.7,13.9-10.2,13.9-18.6c0-11.8-10.1-15.9-19.3-15.9c-11.6,0-20.1,6-20.1,15.7c0,5.7,3.1,11,7.6,16.4
	c-2.4,0.9-4.7,2-6.8,3.3c-3.7-10.2-12.1-16.7-23.7-16.7c-15.2,0-26.2,11.4-26.2,27.5c0,15.3,9.8,28.4,27,28.4c7.9,0,13.9-2.9,18-6.9
	c4.2,4.3,10.5,6.9,18.3,6.9c9.5,0,17.3-3.8,23.3-9.7l7.6,8.3h16.2L574.7,339.4z M449.3,294.8c0,1.1,0.1,2.1,0.4,2.9
	c0.3,0.9,0.6,1.5,1,2.1c0.5,0.6,1,1,1.6,1.2c0.6,0.3,1.3,0.4,2,0.4c1.5,0,2.6-0.6,3.5-1.8c0.8-1.2,1.3-2.8,1.3-4.8
	c0-2-0.4-3.6-1.3-4.8c-0.8-1.2-2-1.8-3.5-1.8c-0.7,0-1.3,0.1-2,0.4c-0.6,0.3-1.2,0.7-1.6,1.2c-0.5,0.5-0.8,1.2-1,2.1
	C449.4,292.8,449.3,293.7,449.3,294.8 M449.5,278.6v9.3c0.6-1,1.3-1.7,2.3-2.2c1-0.5,2.1-0.8,3.4-0.8c1.2,0,2.2,0.2,3.3,0.7
	c1,0.5,1.9,1.1,2.6,2c0.7,0.9,1.3,2,1.7,3.2c0.4,1.2,0.6,2.6,0.6,4.1c0,1.6-0.2,2.9-0.6,4.2c-0.4,1.2-1,2.3-1.7,3.2
	c-0.7,0.9-1.6,1.6-2.6,2c-1,0.5-2.1,0.7-3.3,0.7c-1.3,0-2.4-0.3-3.4-0.8c-1-0.5-1.7-1.3-2.3-2.2v2.5h-4.3v-25.9H449.5z M465,310.6
	h2.1c1,0,2-0.1,2.7-0.3c0.7-0.2,1.3-0.5,1.9-1c0.5-0.5,1-1.1,1.4-1.9c0.5-0.8,0.9-1.8,1.3-3l6.7-19.1h-4.4l-4.4,13.7l-4.4-13.7h-4.7
	l7,19.1l-0.2,0.5c-0.2,0.6-0.4,1.1-0.6,1.4c-0.2,0.3-0.5,0.6-0.7,0.8c-0.3,0.2-0.6,0.3-0.9,0.3c-0.3,0.1-0.7,0.1-1.2,0.1H465V310.6
	L465,310.6z"/>
</svg>
